  0
SECTION
  2
HEADER
  9
$ACADVER
  1
AC1009
  9
$DWGCODEPAGE
  3
ansi_1252
  9
$INSBASE
 10
0.0
 20
0.0
 30
0.0
  9
$EXTMIN
 10
1.000000000000000E+20
 20
1.000000000000000E+20
 30
1.000000000000000E+20
  9
$EXTMAX
 10
-1.000000000000000E+20
 20
-1.000000000000000E+20
 30
-1.000000000000000E+20
  9
$LIMMIN
 10
0.0
 20
0.0
  9
$LIMMAX
 10
420.0
 20
297.0
  9
$ORTHOMODE
 70
     0
  9
$REGENMODE
 70
     1
  9
$FILLMODE
 70
     1
  9
$QTEXTMODE
 70
     0
  9
$MIRRTEXT
 70
     1
  9
$DRAGMODE
 70
     2
  9
$LTSCALE
 40
1.0
  9
$OSMODE
 70
    37
  9
$ATTMODE
 70
     1
  9
$TEXTSIZE
 40
2.5
  9
$TRACEWID
 40
1.0
  9
$TEXTSTYLE
  7
STANDARD
  9
$CLAYER
  8
0
  9
$CELTYPE
  6
BYLAYER
  9
$CECOLOR
 62
   256
  9
$DIMSCALE
 40
1.0
  9
$DIMASZ
 40
2.5
  9
$DIMEXO
 40
0.625
  9
$DIMDLI
 40
3.75
  9
$DIMRND
 40
0.0
  9
$DIMDLE
 40
0.0
  9
$DIMEXE
 40
1.25
  9
$DIMTP
 40
0.0
  9
$DIMTM
 40
0.0
  9
$DIMTXT
 40
2.5
  9
$DIMCEN
 40
2.5
  9
$DIMTSZ
 40
0.0
  9
$DIMTOL
 70
     0
  9
$DIMLIM
 70
     0
  9
$DIMTIH
 70
     0
  9
$DIMTOH
 70
     0
  9
$DIMSE1
 70
     0
  9
$DIMSE2
 70
     0
  9
$DIMTAD
 70
     1
  9
$DIMZIN
 70
     8
  9
$DIMBLK
  1

  9
$DIMASO
 70
     1
  9
$DIMSHO
 70
     1
  9
$DIMPOST
  1

  9
$DIMAPOST
  1

  9
$DIMALT
 70
     0
  9
$DIMALTD
 70
     3
  9
$DIMALTF
 40
0.03937007874016
  9
$DIMLFAC
 40
1.0
  9
$DIMTOFL
 70
     1
  9
$DIMTVP
 40
0.0
  9
$DIMTIX
 70
     0
  9
$DIMSOXD
 70
     0
  9
$DIMSAH
 70
     0
  9
$DIMBLK1
  1

  9
$DIMBLK2
  1

  9
$DIMSTYLE
  2
ISO-25
  9
$DIMCLRD
 70
     0
  9
$DIMCLRE
 70
     0
  9
$DIMCLRT
 70
     0
  9
$DIMTFAC
 40
1.0
  9
$DIMGAP
 40
0.625
  9
$LUNITS
 70
     2
  9
$LUPREC
 70
     4
  9
$SKETCHINC
 40
1.0
  9
$FILLETRAD
 40
0.0
  9
$AUNITS
 70
     0
  9
$AUPREC
 70
     0
  9
$MENU
  1
.
  9
$ELEVATION
 40
0.0
  9
$PELEVATION
 40
0.0
  9
$THICKNESS
 40
0.0
  9
$LIMCHECK
 70
     0
  9
$CHAMFERA
 40
0.0
  9
$CHAMFERB
 40
0.0
  9
$SKPOLY
 70
     0
  9
$TDCREATE
 40
2460885.754947292
  9
$TDUPDATE
 40
2460885.754947338
  9
$TDINDWG
 40
0.0000000116
  9
$TDUSRTIMER
 40
0.0000000116
  9
$USRTIMER
 70
     1
  9
$ANGBASE
 50
0.0
  9
$ANGDIR
 70
     0
  9
$PDMODE
 70
     0
  9
$PDSIZE
 40
0.0
  9
$PLINEWID
 40
0.0
  9
$COORDS
 70
     1
  9
$SPLFRAME
 70
     0
  9
$SPLINETYPE
 70
     6
  9
$SPLINESEGS
 70
     8
  9
$ATTDIA
 70
     0
  9
$ATTREQ
 70
     1
  9
$HANDLING
 70
     1
  9
$HANDSEED
  5
100001B0
  9
$SURFTAB1
 70
     6
  9
$SURFTAB2
 70
     6
  9
$SURFTYPE
 70
     6
  9
$SURFU
 70
     6
  9
$SURFV
 70
     6
  9
$UCSNAME
  2

  9
$UCSORG
 10
0.0
 20
0.0
 30
0.0
  9
$UCSXDIR
 10
1.0
 20
0.0
 30
0.0
  9
$UCSYDIR
 10
0.0
 20
1.0
 30
0.0
  9
$PUCSNAME
  2

  9
$PUCSORG
 10
0.0
 20
0.0
 30
0.0
  9
$PUCSXDIR
 10
1.0
 20
0.0
 30
0.0
  9
$PUCSYDIR
 10
0.0
 20
1.0
 30
0.0
  9
$USERI1
 70
     0
  9
$USERI2
 70
     0
  9
$USERI3
 70
     0
  9
$USERI4
 70
     0
  9
$USERI5
 70
     0
  9
$USERR1
 40
0.0
  9
$USERR2
 40
0.0
  9
$USERR3
 40
0.0
  9
$USERR4
 40
0.0
  9
$USERR5
 40
0.0
  9
$WORLDVIEW
 70
     1
  9
$SHADEDGE
 70
     3
  9
$SHADEDIF
 70
    70
  9
$TILEMODE
 70
     1
  9
$MAXACTVP
 70
    64
  9
$PLIMCHECK
 70
     0
  9
$PEXTMIN
 10
1.000000000000000E+20
 20
1.000000000000000E+20
 30
1.000000000000000E+20
  9
$PEXTMAX
 10
-1.000000000000000E+20
 20
-1.000000000000000E+20
 30
-1.000000000000000E+20
  9
$PLIMMIN
 10
0.0
 20
0.0
  9
$PLIMMAX
 10
420.0
 20
297.0
  9
$UNITMODE
 70
     0
  9
$VISRETAIN
 70
     1
  9
$PLINEGEN
 70
     0
  9
$PSLTSCALE
 70
     1
  0
ENDSEC
  0
SECTION
  2
TABLES
  0
TABLE
  2
VPORT
 70
     1
  0
VPORT
  2
*ACTIVE
 70
     0
 10
0.0
 20
0.0
 11
1.0
 21
1.0
 12
344.1869158878504
 22
148.5
 13
0.0
 23
0.0
 14
10.0
 24
10.0
 15
10.0
 25
10.0
 16
0.0
 26
0.0
 36
1.0
 17
0.0
 27
0.0
 37
0.0
 40
297.0
 41
1.972972972850329
 42
50.0
 43
0.0
 44
0.0
 50
0.0
 51
0.0
 71
     0
 72
   100
 73
     1
 74
     3
 75
     0
 76
     0
 77
     0
 78
     0
  0
ENDTAB
  0
TABLE
  2
LTYPE
 70
     7
  0
LTYPE
  2
CONTINUOUS
 70
     0
  3
Solid line
 72
    65
 73
     0
 40
0.0
  0
LTYPE
  2
ONS_PHANTOM
 70
     0
  3
Onshape Phantom line ______ __ __ ______
 72
    65
 73
     6
 40
0.4999999999999999
 49
0.25
 49
-0.05
 49
0.05
 49
-0.05
 49
0.05
 49
-0.05
  0
LTYPE
  2
CENTER
 70
     0
  3
Center line ____ _ ____ _ ____ _
 72
    65
 73
     4
 40
0.7874015748031495
 49
0.4921259842519685
 49
-0.0984251968503937
 49
0.0984251968503937
 49
-0.0984251968503937
  0
LTYPE
  2
DASHED
 70
     0
  3
Dashed line __ __ __ __ __
 72
    65
 73
     2
 40
0.75
 49
0.5
 49
-0.25
  0
LTYPE
  2
ONS_DASHDOT
 70
     0
  3
Onshape Dashed with Dot _ . ____ . ____
 72
    65
 73
     4
 40
0.71
 49
0.5
 49
-0.1
 49
0.01
 49
-0.1
  0
LTYPE
  2
ONS_DOTTED
 70
     0
  3
Onshape Dotted line . . . . . . .
 72
    65
 73
     2
 40
0.11
 49
0.01
 49
-0.1
  0
LTYPE
  2
HIDDEN
 70
     0
  3
Hidden line ____ ____ ____ ____ 
 72
    65
 73
     2
 40
0.15
 49
0.1
 49
-0.05
  0
ENDTAB
  0
TABLE
  2
LAYER
 70
    46
  0
LAYER
  2
0
 70
     0
 62
     7
  6
CONTINUOUS
  0
LAYER
  2
SECTION_CUTTING_LINE
 70
     0
 62
     7
  6
ONS_DASHDOT
  0
LAYER
  2
DETAIL_VIEW_BORDER
 70
     0
 62
     7
  6
CONTINUOUS
  0
LAYER
  2
DETAIL_VIEW_PARENT_BORDER
 70
     0
 62
     7
  6
ONS_PHANTOM
  0
LAYER
  2
TEXT
 70
     0
 62
     7
  6
CONTINUOUS
  0
LAYER
  2
SKETCHED_GEOMETRY
 70
     0
 62
    -7
  6
CONTINUOUS
  0
LAYER
  2
VIRTUAL_SHARPS
 70
     0
 62
    -7
  6
CONTINUOUS
  0
LAYER
  2
CENTERLINES
 70
     0
 62
    -7
  6
CENTER
  0
LAYER
  2
CENTERMARKS
 70
     0
 62
    -7
  6
CONTINUOUS
  0
LAYER
  2
TABLES
 70
     0
 62
     7
  6
CONTINUOUS
  0
LAYER
  2
IMAGES
 70
     0
 62
    -7
  6
CONTINUOUS
  0
LAYER
  2
ANNOTATION_LINES
 70
     0
 62
    -7
  6
CONTINUOUS
  0
LAYER
  2
ANNOTATION_TEXT
 70
     0
 62
    -7
  6
CONTINUOUS
  0
LAYER
  2
SIDE_THREAD_SYMBOLS
 70
     0
 62
     7
  6
CONTINUOUS
  0
LAYER
  2
SIDE_THREAD_SYMBOLS_HIDDEN
 70
     0
 62
    -7
  6
HIDDEN
  0
LAYER
  2
SURFACE_THREAD_SYMBOLS
 70
     0
 62
     7
  6
CONTINUOUS
  0
LAYER
  2
SURFACE_THREAD_SYMBOLS_ON_
 70
     0
 62
     7
  6
CONTINUOUS
  0
LAYER
  2
SURFACE_THREAD_SYMBOLS_HID
 70
     0
 62
    -7
  6
HIDDEN
  0
LAYER
  2
BLIND_THREAD_SYMBOLS
 70
     0
 62
     7
  6
CONTINUOUS
  0
LAYER
  2
BLIND_THREAD_SYMBOLS_HIDDE
 70
     0
 62
    -7
  6
HIDDEN
  0
LAYER
  2
EXPLODE_LINES
 70
     0
 62
     7
  6
ONS_PHANTOM
  0
LAYER
  2
HIDDEN_EXPLODE_LINES
 70
     0
 62
    -7
  6
ONS_PHANTOM
  0
LAYER
  2
BREAK_LINES
 70
     0
 62
    -7
  6
CONTINUOUS
  0
LAYER
  2
SHEETMETAL_BEND_LINES_UP
 70
     0
 62
     7
  6
CENTER
  0
LAYER
  2
SHEETMETAL_BEND_LINES_DOWN
 70
     0
 62
     7
  6
CENTER
  0
LAYER
  2
SHEETMETAL_BEND_TANGENT_LI
 70
     0
 62
     7
  6
CONTINUOUS
  0
LAYER
  2
SHEETMETAL_CUT_LINES
 70
     0
 62
     7
  6
CONTINUOUS
  0
LAYER
  2
SHEETMETAL_CBORE_CSINK_UP
 70
     0
 62
     7
  6
CONTINUOUS
  0
LAYER
  2
SHEETMETAL_CBORE_CSINK_DOW
 70
     0
 62
     7
  6
CONTINUOUS
  0
LAYER
  2
SHEETMETAL_FORM_TEAR
 70
     0
 62
     7
  6
CONTINUOUS
  0
LAYER
  2
SHEETMETAL_FORM_UP
 70
     0
 62
     7
  6
CENTER
  0
LAYER
  2
SHEETMETAL_FORM_DOWN
 70
     0
 62
     7
  6
CENTER
  0
LAYER
  2
SHEETMETAL_FORM_CENTERMARK
 70
     0
 62
     7
  6
CENTER
  0
LAYER
  2
REGION_ASSOC_POINTS
 70
     0
 62
    -7
  6
CONTINUOUS
  0
LAYER
  2
PATTERN_CENTERLINES
 70
     1
 62
    -7
  6
CENTER
  0
LAYER
  2
HIDDEN
 70
     0
 62
    -7
  6
HIDDEN
  0
LAYER
  2
VISIBLE
 70
     0
 62
     7
  6
CONTINUOUS
  0
LAYER
  2
MODELSKETCH_VISIBLE
 70
     0
 62
     7
  6
CONTINUOUS
  0
LAYER
  2
MODELSKETCH_POINT
 70
     0
 62
     7
  6
CONTINUOUS
  0
LAYER
  2
MODELSKETCH_CONSTRUCTION
 70
     0
 62
    -7
  6
CENTER
  0
LAYER
  2
HIDDEN_BASE_VIEW
 70
     0
 62
     7
  6
CONTINUOUS
  0
LAYER
  2
TANGENT_LINES
 70
     0
 62
    -7
  6
CONTINUOUS
  0
LAYER
  2
TANGENT_HIDDEN
 70
     0
 62
    -7
  6
HIDDEN
  0
LAYER
  2
INVISIBLE_LINES
 70
     0
 62
    -7
  6
CONTINUOUS
  0
LAYER
  2
VIEW_HATCHES
 70
     0
 62
    -7
  6
CONTINUOUS
  0
LAYER
  2
SECTION_JOG_LINES
 70
     0
 62
    -7
  6
CONTINUOUS
  0
ENDTAB
  0
TABLE
  2
STYLE
 70
     2
  0
STYLE
  2
STANDARD
 70
     0
 40
0.0
 41
1.0
 50
0.0
 71
     0
 42
2.5
  3
txt
  4

  0
STYLE
  2
TTFSTYLE
 70
     0
 40
0.0
 41
1.0
 50
0.0
 71
     0
 42
2.5
  3

  4

  0
ENDTAB
  0
TABLE
  2
VIEW
 70
     0
  0
ENDTAB
  0
TABLE
  2
UCS
 70
     0
  0
ENDTAB
  0
TABLE
  2
APPID
 70
     1
  0
APPID
  2
ACAD
 70
     0
  0
ENDTAB
  0
TABLE
  2
DIMSTYLE
 70
     1
  0
DIMSTYLE
  2
ISO-25
 70
     0
  3

  4

  5

  6

  7

 40
1.0
 41
2.5
 42
0.625
 43
3.75
 44
1.25
 45
0.0
 46
0.0
 47
0.0
 48
0.0
140
2.5
141
2.5
142
0.0
143
0.03937007874016
144
1.0
145
0.0
146
1.0
147
0.625
 71
     0
 72
     0
 73
     0
 74
     0
 75
     0
 76
     0
 77
     1
 78
     8
170
     0
171
     3
172
     1
173
     0
174
     0
175
     0
176
     0
177
     0
178
     0
  0
ENDTAB
  0
ENDSEC
  0
SECTION
  2
BLOCKS
  0
BLOCK
  8
0
  2
$MODEL_SPACE
 70
     0
 10
0.0
 20
0.0
 30
0.0
  3
$MODEL_SPACE
  1

  0
ENDBLK
  5
21
  8
0
  0
BLOCK
 67
     1
  8
0
  2
$PAPER_SPACE
 70
     0
 10
0.0
 20
0.0
 30
0.0
  3
$PAPER_SPACE
  1

  0
ENDBLK
  5
1D
 67
     1
  8
0
  0
ENDSEC
  0
SECTION
  2
ENTITIES
  0
LINE
  5
10000057
  8
MODELSKETCH_VISIBLE
 10
-94.60000000000001
 20
31.02499999999999
 30
0.0
 11
-94.60000000000001
 21
29.42499999999999
 31
0.0
  0
CIRCLE
  5
1000005B
  8
MODELSKETCH_VISIBLE
 10
-13.99999999999999
 20
-46.00000028675855
 30
0.0
 40
1.75
  0
LINE
  5
1000005F
  8
MODELSKETCH_VISIBLE
 10
-94.60000000000005
 20
38.47499999999989
 30
0.0
 11
-94.60000000000005
 21
35.4749999999999
 31
0.0
  0
LINE
  5
10000063
  8
MODELSKETCH_VISIBLE
 10
-93.39999999999999
 20
23.52499999999998
 30
0.0
 11
-93.39999999999999
 21
21.92499999999998
 31
0.0
  0
LINE
  5
10000067
  8
MODELSKETCH_VISIBLE
 10
-98.0
 20
-0.0000000000000013
 30
0.0
 11
-96.6
 21
-0.0000000000000011
 31
0.0
  0
LINE
  5
1000006B
  8
MODELSKETCH_VISIBLE
 10
-93.39999999999998
 20
35.4749999999999
 30
0.0
 11
-94.60000000000005
 21
35.4749999999999
 31
0.0
  0
LINE
  5
1000006F
  8
MODELSKETCH_VISIBLE
 10
-96.60000000000001
 20
10.1
 30
0.0
 11
-98.0
 21
10.1
 31
0.0
  0
LINE
  5
10000073
  8
MODELSKETCH_VISIBLE
 10
-93.39999999999999
 20
19.775
 30
0.0
 11
-93.39999999999999
 21
18.175
 31
0.0
  0
ARC
  5
10000077
  8
MODELSKETCH_VISIBLE
 10
-96.60000000000001
 20
11.69999999999998
 30
0.0
 40
1.59999999999999
 50
270.0
 51
0.0
  0
LINE
  5
1000007B
  8
MODELSKETCH_VISIBLE
 10
-95.0
 20
45.99999971324146
 30
0.0
 11
-95.0
 21
11.69999999999998
 31
0.0
  0
ARC
  5
1000007F
  8
MODELSKETCH_VISIBLE
 10
-91.0
 20
45.99999971324146
 30
0.0
 40
3.999999999999996
 50
90.0
 51
180.0
  0
LINE
  5
10000083
  8
MODELSKETCH_VISIBLE
 10
-50.57878393815776
 20
49.99999971324149
 30
0.0
 11
-91.0
 21
49.99999971324146
 31
0.0
  0
ARC
  5
10000087
  8
MODELSKETCH_VISIBLE
 10
-50.57878393815777
 20
45.99999971324149
 30
0.0
 40
4.000000000000004
 50
17.45760398489061
 51
89.9999999999998
  0
LINE
  5
1000008B
  8
MODELSKETCH_VISIBLE
 10
-86.0
 20
42.39999971324145
 30
0.0
 11
-86.0
 21
49.89999971324146
 31
0.0
  0
ARC
  5
1000008F
  8
MODELSKETCH_VISIBLE
 10
-31.50000000000012
 20
51.99999999999999
 30
0.0
 40
16.00000000000009
 50
197.4576039848907
 51
270.0
  0
LINE
  5
10000093
  8
MODELSKETCH_VISIBLE
 10
-40.92121588147974
 20
-42.40000028675855
 30
0.0
 11
-40.92121588147974
 21
-47.00000028675855
 31
0.0
  0
LINE
  5
10000097
  8
MODELSKETCH_VISIBLE
 10
-83.99999999999999
 20
49.89999971324145
 30
0.0
 11
-86.0
 21
49.89999971324145
 31
0.0
  0
LINE
  5
1000009B
  8
MODELSKETCH_VISIBLE
 10
-14.0
 20
35.99999999999989
 30
0.0
 11
-31.50000000000012
 21
35.99999999999989
 31
0.0
  0
LINE
  5
1000009F
  8
MODELSKETCH_VISIBLE
 10
-100.0
 20
-0.0000000000000015
 30
0.0
 11
-88.40000000000002
 21
-0.0000000000000001
 31
0.0
  0
CIRCLE
  5
100000A3
  8
MODELSKETCH_VISIBLE
 10
-51.0
 20
-32.00000000000003
 30
0.0
 40
1.750000000000002
  0
LINE
  5
100000A7
  8
MODELSKETCH_VISIBLE
 10
-88.4
 20
0.0
 30
0.0
 11
-88.4
 21
10.1
 31
0.0
  0
LINE
  5
100000AB
  8
MODELSKETCH_VISIBLE
 10
-88.40000000000002
 20
10.1
 30
0.0
 11
-100.0
 21
10.1
 31
0.0
  0
LINE
  5
100000AF
  8
MODELSKETCH_VISIBLE
 10
-100.0
 20
10.1
 30
0.0
 11
-100.0
 21
0.0000000000000009
 31
0.0
  0
LINE
  5
100000B3
  8
MODELSKETCH_VISIBLE
 10
-40.92121588147974
 20
-47.00000028675855
 30
0.0
 11
-32.92121588147974
 21
-47.00000028675855
 31
0.0
  0
ARC
  5
100000B7
  8
MODELSKETCH_VISIBLE
 10
-41.92121588147972
 20
-46.00000028675854
 30
0.0
 40
4.000000000000018
 50
197.4576022625534
 51
269.9999999999998
  0
LINE
  5
100000BB
  8
MODELSKETCH_VISIBLE
 10
-88.50000000000001
 20
-25.5
 30
0.0
 11
-88.50000000000001
 21
-8.000000000000002
 31
0.0
  0
LINE
  5
100000BF
  8
MODELSKETCH_VISIBLE
 10
-88.50000000000001
 20
-8.000000000000004
 30
0.0
 11
-100.0
 21
-8.000000000000005
 31
0.0
  0
LINE
  5
100000C3
  8
MODELSKETCH_VISIBLE
 10
-93.4
 20
25.67499999999999
 30
0.0
 11
-94.60000000000001
 21
25.67499999999999
 31
0.0
  0
LINE
  5
100000C7
  8
MODELSKETCH_VISIBLE
 10
-19.92121588147973
 20
-47.00000028675854
 30
0.0
 11
-19.92121588147973
 21
-42.40000028675855
 31
0.0
  0
LINE
  5
100000CB
  8
MODELSKETCH_VISIBLE
 10
-41.92121588147974
 20
-50.00000028675855
 30
0.0
 11
-13.99999999999999
 21
-50.00000028675855
 31
0.0
  0
LINE
  5
100000CF
  8
MODELSKETCH_VISIBLE
 10
-32.92121588147974
 20
-42.40000028675855
 30
0.0
 11
-40.92121588147974
 21
-42.40000028675855
 31
0.0
  0
LINE
  5
100000D3
  8
MODELSKETCH_VISIBLE
 10
-100.0
 20
-8.000000000000004
 30
0.0
 11
-100.0
 21
-25.5
 31
0.0
  0
LINE
  5
100000D7
  8
MODELSKETCH_VISIBLE
 10
-19.92121588147973
 20
-42.40000028675855
 30
0.0
 11
-27.92121588147973
 21
-42.40000028675855
 31
0.0
  0
ARC
  5
100000DB
  8
MODELSKETCH_VISIBLE
 10
-13.99999999999999
 20
-46.00000028675855
 30
0.0
 40
4.000000000000002
 50
270.0
 51
0.0
  0
LINE
  5
100000DF
  8
MODELSKETCH_VISIBLE
 10
-100.0
 20
-25.5
 30
0.0
 11
-88.50000000000001
 21
-25.5
 31
0.0
  0
LINE
  5
100000E3
  8
MODELSKETCH_VISIBLE
 10
-27.92121588147973
 20
-42.40000028675855
 30
0.0
 11
-27.92121588147973
 21
-47.00000028675855
 31
0.0
  0
LINE
  5
100000E7
  8
MODELSKETCH_VISIBLE
 10
-9.999999999999998
 20
-46.00000028675855
 30
0.0
 11
-9.999999999999998
 21
31.9999999999999
 31
0.0
  0
LINE
  5
100000EB
  8
MODELSKETCH_VISIBLE
 10
-32.92121588147974
 20
-47.00000028675855
 30
0.0
 11
-32.92121588147974
 21
-42.40000028675855
 31
0.0
  0
LINE
  5
100000EF
  8
MODELSKETCH_VISIBLE
 10
-27.92121588147973
 20
-47.00000028675854
 30
0.0
 11
-19.92121588147973
 21
-47.00000028675854
 31
0.0
  0
ARC
  5
100000F3
  8
MODELSKETCH_VISIBLE
 10
-14.0
 20
31.9999999999999
 30
0.0
 40
4.000000000000003
 50
0.0
 51
90.0
  0
LINE
  5
100000F7
  8
MODELSKETCH_VISIBLE
 10
-83.99999999999999
 20
42.39999971324145
 30
0.0
 11
-86.0
 21
42.39999971324145
 31
0.0
  0
ARC
  5
100000FB
  8
MODELSKETCH_VISIBLE
 10
-96.6
 20
-1.599999999999953
 30
0.0
 40
1.599999999999978
 50
0.0
 51
90.0
  0
LINE
  5
100000FF
  8
MODELSKETCH_VISIBLE
 10
-93.39999999999999
 20
19.77500000000001
 30
0.0
 11
-94.60000000000001
 21
19.77500000000001
 31
0.0
  0
LINE
  5
10000103
  8
MODELSKETCH_VISIBLE
 10
-83.99999999999999
 20
42.39999971324145
 30
0.0
 11
-78.99999999999999
 21
42.39999971324145
 31
0.0
  0
CIRCLE
  5
10000107
  8
MODELSKETCH_VISIBLE
 10
-41.50000000000013
 20
31.9999999999999
 30
0.0
 40
1.750000000000002
  0
LINE
  5
1000010B
  8
MODELSKETCH_VISIBLE
 10
-94.99999999999999
 20
-1.599999999999977
 30
0.0
 11
-94.99999999999999
 21
-6.400000000000023
 31
0.0
  0
LINE
  5
1000010F
  8
MODELSKETCH_VISIBLE
 10
-93.4
 20
29.42499999999999
 30
0.0
 11
-94.60000000000001
 21
29.42499999999999
 31
0.0
  0
LINE
  5
10000113
  8
MODELSKETCH_VISIBLE
 10
-78.99999999999999
 20
49.89999971324146
 30
0.0
 11
-83.99999999999999
 21
49.89999971324146
 31
0.0
  0
ARC
  5
10000117
  8
MODELSKETCH_VISIBLE
 10
-96.6
 20
-6.40000000000005
 30
0.0
 40
1.599999999999979
 50
270.0
 51
0.0
  0
LINE
  5
1000011B
  8
MODELSKETCH_VISIBLE
 10
-94.60000000000001
 20
23.52499999999998
 30
0.0
 11
-94.60000000000001
 21
21.92499999999998
 31
0.0
  0
LINE
  5
1000011F
  8
MODELSKETCH_VISIBLE
 10
-76.99999999999999
 20
49.89999971324146
 30
0.0
 11
-78.99999999999999
 21
49.89999971324146
 31
0.0
  0
LINE
  5
10000123
  8
MODELSKETCH_VISIBLE
 10
-96.6
 20
-8.000000000000002
 30
0.0
 11
-100.0
 21
-8.000000000000005
 31
0.0
  0
LINE
  5
10000127
  8
MODELSKETCH_VISIBLE
 10
-93.39999999999999
 20
27.27499999999998
 30
0.0
 11
-93.39999999999999
 21
25.67499999999999
 31
0.0
  0
LINE
  5
1000012B
  8
MODELSKETCH_VISIBLE
 10
-76.99999999999999
 20
42.39999971324145
 30
0.0
 11
-78.99999999999999
 21
42.39999971324145
 31
0.0
  0
LINE
  5
1000012F
  8
MODELSKETCH_VISIBLE
 10
-100.0
 20
-8.000000000000005
 30
0.0
 11
-100.0
 21
-25.5
 31
0.0
  0
LINE
  5
10000133
  8
MODELSKETCH_VISIBLE
 10
-93.39999999999999
 20
31.02499999999999
 30
0.0
 11
-93.39999999999999
 21
29.42499999999999
 31
0.0
  0
LINE
  5
10000137
  8
MODELSKETCH_VISIBLE
 10
-76.99999999999999
 20
42.39999971324146
 30
0.0
 11
-76.99999999999999
 21
49.89999971324146
 31
0.0
  0
LINE
  5
1000013B
  8
MODELSKETCH_VISIBLE
 10
-100.0
 20
-25.5
 30
0.0
 11
-96.6
 21
-25.5
 31
0.0
  0
LINE
  5
1000013F
  8
MODELSKETCH_VISIBLE
 10
-93.4
 20
27.27499999999998
 30
0.0
 11
-94.60000000000001
 21
27.27499999999998
 31
0.0
  0
LINE
  5
10000143
  8
MODELSKETCH_VISIBLE
 10
-64.57878393815776
 20
42.39999971324144
 30
0.0
 11
-64.57878393815776
 21
46.99999971324146
 31
0.0
  0
ARC
  5
10000147
  8
MODELSKETCH_VISIBLE
 10
-96.6
 20
-27.09999999999996
 30
0.0
 40
1.599999999999978
 50
0.0
 51
90.0
  0
LINE
  5
1000014B
  8
MODELSKETCH_VISIBLE
 10
-94.60000000000001
 20
27.27499999999998
 30
0.0
 11
-94.60000000000001
 21
25.67499999999998
 31
0.0
  0
LINE
  5
1000014F
  8
MODELSKETCH_VISIBLE
 10
-64.57878393815776
 20
46.99999971324146
 30
0.0
 11
-72.57878393815776
 21
46.99999971324146
 31
0.0
  0
LINE
  5
10000153
  8
MODELSKETCH_VISIBLE
 10
-94.99999999999999
 20
-27.09999999999998
 30
0.0
 11
-94.99999999999999
 21
-32.00000000000003
 31
0.0
  0
LINE
  5
10000157
  8
MODELSKETCH_VISIBLE
 10
-93.39999999999999
 20
18.175
 30
0.0
 11
-94.60000000000001
 21
18.175
 31
0.0
  0
LINE
  5
1000015B
  8
MODELSKETCH_VISIBLE
 10
-72.57878393815776
 20
46.99999971324146
 30
0.0
 11
-72.57878393815776
 21
42.39999971324148
 31
0.0
  0
ARC
  5
1000015F
  8
MODELSKETCH_VISIBLE
 10
-91.0
 20
-32.00000000000003
 30
0.0
 40
4.000000000000004
 50
180.0
 51
270.0
  0
LINE
  5
10000163
  8
MODELSKETCH_VISIBLE
 10
-93.4
 20
31.02499999999999
 30
0.0
 11
-94.60000000000001
 21
31.02499999999999
 31
0.0
  0
CIRCLE
  5
10000167
  8
MODELSKETCH_VISIBLE
 10
-91.0
 20
-32.00000000000003
 30
0.0
 40
1.750000000000002
  0
CIRCLE
  5
1000016B
  8
MODELSKETCH_VISIBLE
 10
-14.0
 20
31.9999999999999
 30
0.0
 40
1.750000000000001
  0
LINE
  5
1000016F
  8
MODELSKETCH_VISIBLE
 10
-72.57878393815776
 20
42.39999971324144
 30
0.0
 11
-64.57878393815776
 21
42.39999971324144
 31
0.0
  0
LINE
  5
10000173
  8
MODELSKETCH_VISIBLE
 10
-91.0
 20
-36.00000000000003
 30
0.0
 11
-61.0
 21
-36.00000000000003
 31
0.0
  0
LINE
  5
10000177
  8
MODELSKETCH_VISIBLE
 10
-93.39999999999999
 20
38.47499999999989
 30
0.0
 11
-94.60000000000005
 21
38.47499999999989
 31
0.0
  0
CIRCLE
  5
1000017B
  8
MODELSKETCH_VISIBLE
 10
-91.0
 20
45.99999971324146
 30
0.0
 40
1.750000000000002
  0
LINE
  5
1000017F
  8
MODELSKETCH_VISIBLE
 10
-51.57878393815776
 20
46.99999971324146
 30
0.0
 11
-59.57878393815776
 21
46.99999971324146
 31
0.0
  0
ARC
  5
10000183
  8
MODELSKETCH_VISIBLE
 10
-61.00000000000001
 20
-52.00000000000001
 30
0.0
 40
15.99999999999998
 50
17.45760226255333
 51
89.99999999999994
  0
LINE
  5
10000187
  8
MODELSKETCH_VISIBLE
 10
-93.4
 20
21.92499999999998
 30
0.0
 11
-94.60000000000001
 21
21.92499999999998
 31
0.0
  0
LINE
  5
1000018B
  8
MODELSKETCH_VISIBLE
 10
-59.57878393815776
 20
46.99999971324146
 30
0.0
 11
-59.57878393815776
 21
42.39999971324147
 31
0.0
  0
LINE
  5
1000018F
  8
MODELSKETCH_VISIBLE
 10
-93.39999999999999
 20
38.4749999999999
 30
0.0
 11
-93.39999999999999
 21
35.4749999999999
 31
0.0
  0
LINE
  5
10000193
  8
MODELSKETCH_VISIBLE
 10
-59.57878393815776
 20
42.39999971324147
 30
0.0
 11
-51.57878393815776
 21
42.39999971324147
 31
0.0
  0
LINE
  5
10000197
  8
MODELSKETCH_VISIBLE
 10
-94.60000000000001
 20
19.775
 30
0.0
 11
-94.60000000000001
 21
18.175
 31
0.0
  0
LINE
  5
1000019B
  8
MODELSKETCH_VISIBLE
 10
-51.57878393815776
 20
42.39999971324148
 30
0.0
 11
-51.57878393815776
 21
46.99999971324148
 31
0.0
  0
LINE
  5
1000019F
  8
MODELSKETCH_VISIBLE
 10
-93.4
 20
23.52499999999998
 30
0.0
 11
-94.60000000000001
 21
23.52499999999998
 31
0.0
  0
ENDSEC
  0
EOF
